<?xml version="1.0" encoding="UTF-8"?>
<!DOCTYPE svg PUBLIC "-//W3C//DTD SVG 1.1//EN" "http://www.w3.org/Graphics/SVG/1.1/DTD/svg11.dtd">
<svg xmlns="http://www.w3.org/2000/svg" version="1.1" width="700px" height="466px" style="shape-rendering:geometricPrecision; text-rendering:geometricPrecision; image-rendering:optimizeQuality; fill-rule:evenodd; clip-rule:evenodd" xmlns:xlink="http://www.w3.org/1999/xlink">
<g><path style="opacity:1" fill="#000000" d="M -0.5,-0.5 C 232.833,-0.5 466.167,-0.5 699.5,-0.5C 699.5,154.833 699.5,310.167 699.5,465.5C 466.167,465.5 232.833,465.5 -0.5,465.5C -0.5,310.167 -0.5,154.833 -0.5,-0.5 Z"/></g>
<g><path style="opacity:1" fill="#3c430c" d="M 416.5,12.5 C 418.607,11.5318 420.941,11.1984 423.5,11.5C 423.5,19.5 423.5,27.5 423.5,35.5C 423.167,35.5 422.833,35.5 422.5,35.5C 422.5,34.1667 422.5,32.8333 422.5,31.5C 422.5,25.1667 422.5,18.8333 422.5,12.5C 420.5,12.5 418.5,12.5 416.5,12.5 Z"/></g>
<g><path style="opacity:1" fill="#b5c146" d="M 416.5,12.5 C 418.5,12.5 420.5,12.5 422.5,12.5C 422.5,18.8333 422.5,25.1667 422.5,31.5C 421.51,25.69 421.177,19.69 421.5,13.5C 419.179,13.2289 417.179,13.8955 415.5,15.5C 415.192,18.7499 415.025,22.0833 415,25.5C 414.667,23.8333 414.333,22.1667 414,20.5C 413.667,20.8333 413.333,21.1667 413,21.5C 412.5,31.1609 412.334,40.8276 412.5,50.5C 411.732,49.7375 411.232,48.7375 411,47.5C 410.101,37.1066 410.434,26.7733 412,16.5C 413.049,14.6156 414.549,13.2823 416.5,12.5 Z"/></g>
<g><path style="opacity:1" fill="#aab539" d="M 479.5,150.5 C 478.501,105.003 478.168,59.3364 478.5,13.5C 476.856,13.2865 475.356,13.6198 474,14.5C 473.667,16.5 473.333,18.5 473,20.5C 471.171,22.1558 469.837,24.1558 469,26.5C 468.667,70.8333 468.333,115.167 468,159.5C 467.583,160.756 466.75,161.423 465.5,161.5C 465.892,159.821 466.392,158.154 467,156.5C 467.333,112.833 467.667,69.1667 468,25.5C 469.385,20.9392 471.218,16.6059 473.5,12.5C 475.353,11.2404 477.186,11.2404 479,12.5C 479.5,58.4988 479.667,104.499 479.5,150.5 Z"/></g>
<g><path style="opacity:1" fill="#c5d24e" d="M 345.5,148.5 C 344.667,104.335 344.167,60.0019 344,15.5C 343.586,15.0426 343.086,14.7093 342.5,14.5C 340.683,15.767 339.016,17.1003 337.5,18.5C 338.129,13.6706 340.629,12.004 345,13.5C 345.5,58.4988 345.667,103.499 345.5,148.5 Z"/></g>
<g><path style="opacity:1" fill="#a4ae41" d="M 335.5,23.5 C 334.2,67.4877 334.2,111.488 335.5,155.5C 334.732,154.737 334.232,153.737 334,152.5C 333.333,110.5 333.333,68.5 334,26.5C 334.232,25.2625 334.732,24.2625 335.5,23.5 Z"/></g>
<g><path style="opacity:1" fill="#c4d433" d="M 276.5,121.5 C 277.886,114.671 276.053,109.005 271,104.5C 270.464,106.869 269.297,108.869 267.5,110.5C 271.103,112.646 270.437,113.646 265.5,113.5C 265.101,116.971 263.601,117.304 261,114.5C 260.517,113.552 260.351,112.552 260.5,111.5C 257.478,113.129 254.478,114.296 251.5,115C 254.439,116.06 257.439,116.56 260.5,116.5C 257.621,117.595 257.954,119.095 261.5,121C 260.692,121.308 260.025,121.808 259.5,122.5C 260.824,123.935 262.49,124.935 264.5,125.5C 263.359,126.425 263.359,127.259 264.5,128C 268.789,129.264 271.789,127.931 273.5,124C 273.355,123.228 273.022,122.561 272.5,122C 273.819,121.805 275.153,121.972 276.5,122.5C 274.945,128.886 270.945,131.386 264.5,130C 257.948,123.951 251.948,117.451 246.5,110.5C 245.157,102.129 248.157,95.1288 255.5,89.5C 263.17,95.672 270.337,102.339 277,109.5C 277.812,113.689 277.645,117.689 276.5,121.5 Z"/></g>
<g><path style="opacity:1" fill="#c9db29" d="M 276.5,121.5 C 276.5,121.833 276.5,122.167 276.5,122.5C 275.153,121.972 273.819,121.805 272.5,122C 273.022,122.561 273.355,123.228 273.5,124C 271.789,127.931 268.789,129.264 264.5,128C 263.359,127.259 263.359,126.425 264.5,125.5C 262.49,124.935 260.824,123.935 259.5,122.5C 260.025,121.808 260.692,121.308 261.5,121C 257.954,119.095 257.621,117.595 260.5,116.5C 257.439,116.56 254.439,116.06 251.5,115C 254.478,114.296 257.478,113.129 260.5,111.5C 260.351,112.552 260.517,113.552 261,114.5C 263.601,117.304 265.101,116.971 265.5,113.5C 270.437,113.646 271.103,112.646 267.5,110.5C 269.297,108.869 270.464,106.869 271,104.5C 276.053,109.005 277.886,114.671 276.5,121.5 Z"/></g>
<g><path style="opacity:1" fill="#adb74f" d="M 315.5,103.5 C 314.325,116.97 313.325,130.304 312.5,143.5C 312.334,133.828 312.5,124.161 313,114.5C 313.242,110.57 314.075,106.903 315.5,103.5 Z"/></g>
<g><path style="opacity:1" fill="#afba3e" d="M 325.5,97.5 C 325.334,103.176 325.501,108.843 326,114.5C 328.92,124.396 329.253,134.396 327,144.5C 325.96,147.823 324.46,150.823 322.5,153.5C 322.643,151.738 322.309,150.071 321.5,148.5C 321.938,147.494 322.604,147.494 323.5,148.5C 324.645,147.224 324.645,145.891 323.5,144.5C 324.325,143.614 325.325,143.281 326.5,143.5C 326.813,131.663 326.146,119.997 324.5,108.5C 324.501,104.651 324.835,100.984 325.5,97.5 Z"/></g>
<g><path style="opacity:1" fill="#bdcc3f" d="M 598.5,148.5 C 597.18,147.058 595.514,146.392 593.5,146.5C 590.753,143.083 588.253,139.416 586,135.5C 584.951,137.107 583.451,137.773 581.5,137.5C 580.986,139.512 580.82,141.512 581,143.5C 582.401,147.262 584.901,149.929 588.5,151.5C 589.711,152.72 589.711,153.887 588.5,155C 589.253,156.487 590.086,156.654 591,155.5C 592.036,157.299 592.203,158.966 591.5,160.5C 584.788,153.436 579.288,145.436 575,136.5C 573.376,130.392 574.876,125.392 579.5,121.5C 581.051,118.437 583.218,115.771 586,113.5C 586.151,120.896 586.818,128.229 588,135.5C 591.737,139.727 595.237,144.06 598.5,148.5 Z"/></g>
<g><path style="opacity:1" fill="#c9db2a" d="M 579.5,121.5 C 580.5,121.5 581.5,121.5 582.5,121.5C 582.312,119.897 582.812,118.563 584,117.5C 584.875,123.666 584.375,129.666 582.5,135.5C 581.5,135.5 580.5,135.5 579.5,135.5C 579.657,136.873 579.49,138.207 579,139.5C 576.847,133.39 577.014,127.39 579.5,121.5 Z"/></g>
<g><path style="opacity:1" fill="#93a04f" d="M 79.5,143.5 C 77.2188,143.077 75.5521,143.744 74.5,145.5C 73.6364,144.312 72.6364,143.145 71.5,142C 74.4822,141.297 77.1488,141.797 79.5,143.5 Z"/></g>
<g><path style="opacity:1" fill="#b9c840" d="M 79.5,143.5 C 87.7912,147.814 96.1245,151.814 104.5,155.5C 97.9793,154.159 91.8126,151.825 86,148.5C 82.897,150.112 82.7304,152.112 85.5,154.5C 80.9568,152.628 77.2901,149.628 74.5,145.5C 75.5521,143.744 77.2188,143.077 79.5,143.5 Z"/></g>
<g><path style="opacity:1" fill="#c8d92c" d="M 422.5,31.5 C 422.5,32.8333 422.5,34.1667 422.5,35.5C 422.831,43.5277 422.498,51.5277 421.5,59.5C 420.833,61.1667 420.167,62.8333 419.5,64.5C 418.313,63.1062 417.646,63.2729 417.5,65C 417.903,70.3791 419.57,75.2124 422.5,79.5C 421.739,84.1633 421.072,88.83 420.5,93.5C 419.022,93.238 417.689,93.5713 416.5,94.5C 417.977,97.4336 418.977,100.434 419.5,103.5C 424.786,110.625 430.286,117.625 436,124.5C 441.049,133.21 442.716,142.543 441,152.5C 440.392,154.066 439.558,155.4 438.5,156.5C 435.05,155.756 433.384,157.09 433.5,160.5C 429.862,159.737 428.362,161.07 429,164.5C 429.725,165.059 430.558,165.392 431.5,165.5C 438.805,164.735 446.138,164.235 453.5,164C 457.736,163.665 461.736,162.832 465.5,161.5C 466.75,161.423 467.583,160.756 468,159.5C 468.333,115.167 468.667,70.8333 469,26.5C 469.837,24.1558 471.171,22.1558 473,20.5C 473.333,18.5 473.667,16.5 474,14.5C 475.356,13.6198 476.856,13.2865 478.5,13.5C 478.168,59.3364 478.501,105.003 479.5,150.5C 480.167,153.5 480.833,156.5 481.5,159.5C 481.586,160.496 481.252,161.329 480.5,162C 482.848,162.11 484.348,163.277 485,165.5C 485.561,164.978 486.228,164.645 487,164.5C 490.487,165.213 493.987,165.879 497.5,166.5C 502.13,164.516 506.796,162.85 511.5,161.5C 514.171,159.882 517.171,159.215 520.5,159.5C 525.273,159.154 529.94,158.321 534.5,157C 538.167,156.333 541.833,156.333 545.5,157C 546.451,160.057 546.784,163.223 546.5,166.5C 548.099,166.768 549.432,166.434 550.5,165.5C 556.075,162.713 561.741,159.879 567.5,157C 571.358,156.19 575.024,156.357 578.5,157.5C 578.5,160.167 578.5,162.833 578.5,165.5C 581.518,165.665 584.518,165.498 587.5,165C 588.056,164.617 588.389,164.117 588.5,163.5C 590.19,163.144 591.19,162.144 591.5,160.5C 592.203,158.966 592.036,157.299 591,155.5C 590.086,156.654 589.253,156.487 588.5,155C 589.711,153.887 589.711,152.72 588.5,151.5C 584.901,149.929 582.401,147.262 581,143.5C 580.82,141.512 580.986,139.512 581.5,137.5C 583.451,137.773 584.951,137.107 586,135.5C 588.253,139.416 590.753,143.083 593.5,146.5C 595.514,146.392 597.18,147.058 598.5,148.5C 603.975,152.449 606.475,157.782 606,164.5C 602.222,171.115 597.055,176.115 590.5,179.5C 584.44,181.993 578.107,182.993 571.5,182.5C 569.913,179.658 568.08,176.992 566,174.5C 563.953,175.609 561.787,176.276 559.5,176.5C 553.73,178.709 547.73,179.709 541.5,179.5C 538.077,178.022 536.077,175.355 535.5,171.5C 535.209,170.351 534.376,169.684 533,169.5C 529.015,170.161 525.515,171.494 522.5,173.5C 509.768,177.279 496.768,178.779 483.5,178C 479.564,176.453 476.064,174.287 473,171.5C 467.793,175.29 461.96,176.957 455.5,176.5C 444.167,176.5 432.833,176.5 421.5,176.5C 411.811,176.274 402.144,176.608 392.5,177.5C 388.891,176.529 385.224,175.863 381.5,175.5C 381.5,174.5 381.5,173.5 381.5,172.5C 380.5,172.5 379.5,172.5 378.5,172.5C 377.399,171.152 376.399,169.652 375.5,168C 364.761,167.93 354.094,167.263 343.5,166C 339.121,163.789 336.454,160.289 335.5,155.5C 334.2,111.488 334.2,67.4877 335.5,23.5C 335.402,21.4471 336.069,19.7804 337.5,18.5C 339.016,17.1003 340.683,15.767 342.5,14.5C 343.086,14.7093 343.586,15.0426 344,15.5C 344.167,60.0019 344.667,104.335 345.5,148.5C 346.167,148.5 346.5,148.833 346.5,149.5C 346.414,150.496 346.748,151.329 347.5,152C 355.012,152.822 362.345,152.655 369.5,151.5C 373.182,151.665 376.848,151.499 380.5,151C 383.067,148.604 385.4,146.104 387.5,143.5C 388.5,143.5 389.5,143.5 390.5,143.5C 390.277,140.886 391.444,139.219 394,138.5C 394.498,141.482 394.665,144.482 394.5,147.5C 393.07,147.579 391.736,147.246 390.5,146.5C 389.692,146.808 389.025,147.308 388.5,148C 390.609,148.907 391.942,150.407 392.5,152.5C 404.837,151.23 417.17,151.23 429.5,152.5C 429.515,148.44 429.015,144.44 428,140.5C 427.26,138.681 426.093,137.348 424.5,136.5C 421.327,131.509 417.66,126.843 413.5,122.5C 413.428,120.689 412.595,119.356 411,118.5C 408.495,119.422 405.995,119.922 403.5,120C 402.903,118.938 402.57,117.772 402.5,116.5C 405.294,109.659 407.627,102.659 409.5,95.5C 410.154,87.2496 409.154,79.2496 406.5,71.5C 407.788,66.9261 409.621,62.5928 412,58.5C 412.497,55.854 412.664,53.1873 412.5,50.5C 412.334,40.8276 412.5,31.1609 413,21.5C 413.333,21.1667 413.667,20.8333 414,20.5C 414.333,22.1667 414.667,23.8333 415,25.5C 415.025,22.0833 415.192,18.7499 415.5,15.5C 417.179,13.8955 419.179,13.2289 421.5,13.5C 421.177,19.69 421.51,25.69 422.5,31.5 Z"/></g>
<g><path style="opacity:1" fill="#9ca546" d="M 346.5,149.5 C 347.289,149.783 347.956,150.283 348.5,151C 355.492,151.5 362.492,151.666 369.5,151.5C 362.345,152.655 355.012,152.822 347.5,152C 346.748,151.329 346.414,150.496 346.5,149.5 Z"/></g>
<g><path style="opacity:1" fill="#aab645" d="M 424.5,136.5 C 426.093,137.348 427.26,138.681 428,140.5C 429.015,144.44 429.515,148.44 429.5,152.5C 417.17,151.23 404.837,151.23 392.5,152.5C 392.5,152.167 392.5,151.833 392.5,151.5C 404.456,149.473 416.456,149.14 428.5,150.5C 428.095,145.544 426.762,140.877 424.5,136.5 Z"/></g>
<g><path style="opacity:1" fill="#070703" d="M 413.5,122.5 C 417.66,126.843 421.327,131.509 424.5,136.5C 426.762,140.877 428.095,145.544 428.5,150.5C 416.456,149.14 404.456,149.473 392.5,151.5C 399.778,141.949 405.778,131.615 410.5,120.5C 411.518,121.193 412.518,121.859 413.5,122.5 Z"/></g>
<g><path style="opacity:1" fill="#c0cf36" d="M 409.5,95.5 C 407.627,102.659 405.294,109.659 402.5,116.5C 402.57,117.772 402.903,118.938 403.5,120C 405.995,119.922 408.495,119.422 411,118.5C 412.595,119.356 413.428,120.689 413.5,122.5C 412.518,121.859 411.518,121.193 410.5,120.5C 405.778,131.615 399.778,141.949 392.5,151.5C 392.5,151.833 392.5,152.167 392.5,152.5C 391.942,150.407 390.609,148.907 388.5,148C 389.025,147.308 389.692,146.808 390.5,146.5C 391.736,147.246 393.07,147.579 394.5,147.5C 394.665,144.482 394.498,141.482 394,138.5C 391.444,139.219 390.277,140.886 390.5,143.5C 389.5,143.5 388.5,143.5 387.5,143.5C 389.837,140.319 392.004,136.986 394,133.5C 398.409,120.373 403.575,107.707 409.5,95.5 Z"/></g>
<g><path style="opacity:1" fill="#bac845" d="M 422.5,35.5 C 422.833,35.5 423.167,35.5 423.5,35.5C 424.391,43.4847 424.558,51.4847 424,59.5C 422.357,62.6186 420.857,65.7852 419.5,69C 422.082,72.9381 423.749,77.2714 424.5,82C 422.124,89.0048 420.457,96.1715 419.5,103.5C 418.977,100.434 417.977,97.4336 416.5,94.5C 417.689,93.5713 419.022,93.238 420.5,93.5C 421.072,88.83 421.739,84.1633 422.5,79.5C 419.57,75.2124 417.903,70.3791 417.5,65C 417.646,63.2729 418.313,63.1062 419.5,64.5C 420.167,62.8333 420.833,61.1667 421.5,59.5C 422.498,51.5277 422.831,43.5277 422.5,35.5 Z"/></g>
<g><path style="opacity:1" fill="#a7b243" d="M 550.5,165.5 C 549.432,166.434 548.099,166.768 546.5,166.5C 546.784,163.223 546.451,160.057 545.5,157C 541.833,156.333 538.167,156.333 534.5,157C 529.94,158.321 525.273,159.154 520.5,159.5C 528.062,156.155 536.062,154.655 544.5,155C 545.931,155.465 547.097,156.299 548,157.5C 548.175,160.157 548.008,162.824 547.5,165.5C 548.5,165.5 549.5,165.5 550.5,165.5 Z"/></g>
<g><path style="opacity:1" fill="#b1bf42" d="M 85.5,154.5 C 87.3911,155.536 89.2245,155.536 91,154.5C 92.9584,158.23 96.1251,160.23 100.5,160.5C 102.201,161.835 103.868,163.168 105.5,164.5C 97.957,162.729 91.2903,159.395 85.5,154.5 Z"/></g>
<g><path style="opacity:1" fill="#9fab3e" d="M 578.5,157.5 C 579.468,159.607 579.802,161.941 579.5,164.5C 582.57,164.632 585.57,164.299 588.5,163.5C 588.389,164.117 588.056,164.617 587.5,165C 584.518,165.498 581.518,165.665 578.5,165.5C 578.5,162.833 578.5,160.167 578.5,157.5 Z"/></g>
<g><path style="opacity:1" fill="#c8d92e" d="M 325.5,97.5 C 324.835,100.984 324.501,104.651 324.5,108.5C 326.146,119.997 326.813,131.663 326.5,143.5C 325.325,143.281 324.325,143.614 323.5,144.5C 324.645,145.891 324.645,147.224 323.5,148.5C 322.604,147.494 321.938,147.494 321.5,148.5C 322.309,150.071 322.643,151.738 322.5,153.5C 319.06,160.935 313.394,165.935 305.5,168.5C 301.164,168.837 297.497,170.504 294.5,173.5C 276.616,179.143 258.282,182.476 239.5,183.5C 217.394,184.165 195.394,183.165 173.5,180.5C 169.915,179.417 166.249,178.751 162.5,178.5C 157.894,176.124 152.894,175.124 147.5,175.5C 144.461,174.99 141.461,174.323 138.5,173.5C 136.485,172.076 134.152,171.41 131.5,171.5C 131.167,171.5 130.833,171.5 130.5,171.5C 128.485,170.076 126.152,169.41 123.5,169.5C 117.257,168.326 111.257,166.659 105.5,164.5C 103.868,163.168 102.201,161.835 100.5,160.5C 96.1251,160.23 92.9584,158.23 91,154.5C 89.2245,155.536 87.3911,155.536 85.5,154.5C 82.7304,152.112 82.897,150.112 86,148.5C 91.8126,151.825 97.9793,154.159 104.5,155.5C 118.29,159.447 132.29,162.447 146.5,164.5C 149.544,166.011 152.878,166.678 156.5,166.5C 157.5,166.5 158.5,166.5 159.5,166.5C 162.909,167.903 166.575,168.57 170.5,168.5C 170.833,168.5 171.167,168.5 171.5,168.5C 179.015,170.873 186.849,171.873 195,171.5C 211.731,171.134 228.231,169.801 244.5,167.5C 244.833,167.5 245.167,167.5 245.5,167.5C 256.711,167.351 267.711,165.851 278.5,163C 283.146,160.732 287.812,158.565 292.5,156.5C 297.053,154.341 301.719,152.174 306.5,150C 309.442,148.564 311.442,146.397 312.5,143.5C 313.325,130.304 314.325,116.97 315.5,103.5C 317.503,97.5095 321.003,92.5095 326,88.5C 326.044,91.4752 325.877,94.4752 325.5,97.5 Z"/></g>
<g><path style="opacity:1" fill="#aeba43" d="M 438.5,156.5 C 436.579,159.587 433.913,161.754 430.5,163C 442.181,163.071 453.847,162.571 465.5,161.5C 461.736,162.832 457.736,163.665 453.5,164C 446.138,164.235 438.805,164.735 431.5,165.5C 430.558,165.392 429.725,165.059 429,164.5C 428.362,161.07 429.862,159.737 433.5,160.5C 433.384,157.09 435.05,155.756 438.5,156.5 Z"/></g>
<g><path style="opacity:1" fill="#838c38" d="M 146.5,164.5 C 150.078,164.549 153.411,165.215 156.5,166.5C 152.878,166.678 149.544,166.011 146.5,164.5 Z"/></g>
<g><path style="opacity:1" fill="#b7c641" d="M 292.5,156.5 C 287.812,158.565 283.146,160.732 278.5,163C 267.711,165.851 256.711,167.351 245.5,167.5C 261.221,164.491 276.888,160.825 292.5,156.5 Z"/></g>
<g><path style="opacity:1" fill="#b8c63e" d="M 481.5,159.5 C 483.138,160.657 484.804,161.824 486.5,163C 488.667,163.167 490.833,163.333 493,163.5C 499.142,162.589 505.309,161.922 511.5,161.5C 506.796,162.85 502.13,164.516 497.5,166.5C 493.987,165.879 490.487,165.213 487,164.5C 486.228,164.645 485.561,164.978 485,165.5C 484.348,163.277 482.848,162.11 480.5,162C 481.252,161.329 481.586,160.496 481.5,159.5 Z"/></g>
<g><path style="opacity:1" fill="#707825" d="M 159.5,166.5 C 163.425,166.43 167.091,167.097 170.5,168.5C 166.575,168.57 162.909,167.903 159.5,166.5 Z"/></g>
<g><path style="opacity:1" fill="#818833" d="M 123.5,169.5 C 126.152,169.41 128.485,170.076 130.5,171.5C 127.848,171.59 125.515,170.924 123.5,169.5 Z"/></g>
<g><path style="opacity:1" fill="#adb946" d="M 244.5,167.5 C 228.231,169.801 211.731,171.134 195,171.5C 186.849,171.873 179.015,170.873 171.5,168.5C 195.848,169.841 220.181,169.508 244.5,167.5 Z"/></g>
<g><path style="opacity:1" fill="#a6b344" d="M 305.5,168.5 C 302.021,170.403 298.354,172.07 294.5,173.5C 297.497,170.504 301.164,168.837 305.5,168.5 Z"/></g>
<g><path style="opacity:1" fill="#aeba4a" d="M 535.5,171.5 C 531.038,171.423 526.705,172.09 522.5,173.5C 525.515,171.494 529.015,170.161 533,169.5C 534.376,169.684 535.209,170.351 535.5,171.5 Z"/></g>
<g><path style="opacity:1" fill="#7e8731" d="M 131.5,171.5 C 134.152,171.41 136.485,172.076 138.5,173.5C 135.848,173.59 133.515,172.924 131.5,171.5 Z"/></g>
<g><path style="opacity:1" fill="#8e9844" d="M 147.5,175.5 C 152.894,175.124 157.894,176.124 162.5,178.5C 157.35,177.623 152.35,176.623 147.5,175.5 Z"/></g>
<g><path style="opacity:1" fill="#9ea64b" d="M 421.5,176.5 C 432.833,176.5 444.167,176.5 455.5,176.5C 437.009,177.662 418.343,178.329 399.5,178.5C 406.833,177.833 414.167,177.167 421.5,176.5 Z"/></g>
<g><path style="opacity:1" fill="#bdc948" d="M 378.5,172.5 C 379.5,172.5 380.5,172.5 381.5,172.5C 381.5,173.5 381.5,174.5 381.5,175.5C 385.224,175.863 388.891,176.529 392.5,177.5C 402.144,176.608 411.811,176.274 421.5,176.5C 414.167,177.167 406.833,177.833 399.5,178.5C 394.156,178.666 388.823,178.499 383.5,178C 380.921,176.924 379.254,175.091 378.5,172.5 Z"/></g>
<g><path style="opacity:1" fill="#a7af51" d="M 559.5,176.5 C 553.911,180.256 547.911,181.256 541.5,179.5C 547.73,179.709 553.73,178.709 559.5,176.5 Z"/></g>
<g><path style="opacity:1" fill="#b0bc44" d="M 590.5,179.5 C 585.439,184.176 579.439,185.676 572.5,184C 571.944,183.617 571.611,183.117 571.5,182.5C 578.107,182.993 584.44,181.993 590.5,179.5 Z"/></g>
<g><path style="opacity:1" fill="#848c34" d="M 173.5,180.5 C 195.394,183.165 217.394,184.165 239.5,183.5C 224.339,184.661 209.006,184.828 193.5,184C 186.638,183.149 179.971,181.982 173.5,180.5 Z"/></g>
<g><path style="opacity:1" fill="#a9b74c" d="M 159.5,204.5 C 149.1,206.806 138.434,207.806 127.5,207.5C 137.958,205.842 148.625,204.842 159.5,204.5 Z"/></g>
<g><path style="opacity:1" fill="#a6b246" d="M 225.5,202.5 C 237.747,203.425 249.747,205.091 261.5,207.5C 249.245,206.842 237.245,205.175 225.5,202.5 Z"/></g>
<g><path style="opacity:1" fill="#a7b441" d="M 503.5,202.5 C 503.5,202.833 503.5,203.167 503.5,203.5C 485.808,204.587 468.141,205.92 450.5,207.5C 467.877,204.262 485.544,202.596 503.5,202.5 Z"/></g>
<g><path style="opacity:1" fill="#a9b542" d="M 123.5,207.5 C 114.571,210.7 105.237,212.367 95.5,212.5C 104.484,209.572 113.817,207.906 123.5,207.5 Z"/></g>
<g><path style="opacity:1" fill="#c0cd51" d="M 95.5,212.5 C 94.1667,223.5 94.1667,234.5 95.5,245.5C 94.8826,245.389 94.3826,245.056 94,244.5C 93.8333,239.167 93.6667,233.833 93.5,228.5C 93.5051,222.789 94.1718,217.456 95.5,212.5 Z"/></g>
<g><path style="opacity:1" fill="#c8d92b" d="M 225.5,202.5 C 237.245,205.175 249.245,206.842 261.5,207.5C 268.512,207.75 275.179,209.083 281.5,211.5C 281.611,212.117 281.944,212.617 282.5,213C 286.114,213.945 289.781,214.612 293.5,215C 298.511,218.175 303.844,220.675 309.5,222.5C 313.505,223.498 316.839,225.498 319.5,228.5C 319.47,229.497 319.97,230.164 321,230.5C 324.017,230.995 326.517,232.329 328.5,234.5C 327.397,234.998 326.397,235.331 325.5,235.5C 327.074,236.631 328.741,236.798 330.5,236C 330.167,235.667 329.833,235.333 329.5,235C 347.5,234.667 365.5,234.333 383.5,234C 384.942,233.623 385.942,232.79 386.5,231.5C 394.523,227.653 402.523,223.486 410.5,219C 415.977,216.258 421.644,214.092 427.5,212.5C 433.849,211.44 440.182,210.273 446.5,209C 447.056,208.617 447.389,208.117 447.5,207.5C 448.5,207.5 449.5,207.5 450.5,207.5C 468.141,205.92 485.808,204.587 503.5,203.5C 523.874,203.313 544.207,204.146 564.5,206C 582.769,209.091 601.102,211.758 619.5,214C 621.857,223.82 620.357,232.987 615,241.5C 614.503,243.81 614.337,246.143 614.5,248.5C 615.675,248.281 616.675,248.614 617.5,249.5C 614.092,250.929 611.425,253.262 609.5,256.5C 608.833,256.167 608.167,255.833 607.5,255.5C 605.973,257.193 604.64,259.027 603.5,261C 604.578,261.674 605.245,262.674 605.5,264C 604.841,266.462 604.507,268.962 604.5,271.5C 602.5,283.832 600.5,296.165 598.5,308.5C 597.326,309.514 596.66,310.847 596.5,312.5C 595.448,312.351 594.448,312.517 593.5,313C 594.554,314.388 594.72,315.888 594,317.5C 593.692,316.692 593.192,316.025 592.5,315.5C 591.719,316.729 591.219,318.062 591,319.5C 590.83,317.285 590.163,315.285 589,313.5C 588.65,318.184 588.15,322.851 587.5,327.5C 587.292,329.85 586.125,331.516 584,332.5C 583.333,328.167 583.333,323.833 584,319.5C 584.972,323.232 585.472,322.899 585.5,318.5C 584.895,302.675 584.228,287.009 583.5,271.5C 583.736,268.391 583.403,265.391 582.5,262.5C 582.59,259.848 581.924,257.515 580.5,255.5C 576.525,245.022 569.525,237.189 559.5,232C 554.338,229.337 549.005,227.17 543.5,225.5C 535.746,221.891 527.412,220.558 518.5,221.5C 496.986,220.231 475.319,220.397 453.5,222C 452.944,222.383 452.611,222.883 452.5,223.5C 437.194,225.049 423.861,231.049 412.5,241.5C 411.167,241.5 409.833,241.5 408.5,241.5C 408.5,242.833 408.5,244.167 408.5,245.5C 407.5,245.5 406.5,245.5 405.5,245.5C 405.5,247.167 405.5,248.833 405.5,250.5C 404.127,250.343 402.793,250.51 401.5,251C 402.747,252.494 402.747,253.994 401.5,255.5C 400.808,254.975 400.308,254.308 400,253.5C 399.501,259.491 399.334,265.491 399.5,271.5C 399.5,273.167 399.5,274.833 399.5,276.5C 397.822,281.568 397.156,286.902 397.5,292.5C 390.833,292.5 384.167,292.5 377.5,292.5C 376.235,281.778 370.902,273.944 361.5,269C 359.833,268.833 358.167,268.667 356.5,268.5C 352.841,268.51 349.508,269.51 346.5,271.5C 345.167,271.5 343.833,271.5 342.5,271.5C 342.762,272.978 342.429,274.311 341.5,275.5C 339.323,274.496 338.989,275.162 340.5,277.5C 339.624,278.251 338.624,278.751 337.5,279C 338.747,280.494 338.747,281.994 337.5,283.5C 336.604,282.494 335.938,282.494 335.5,283.5C 336.348,285.409 336.682,287.409 336.5,289.5C 330.955,291.022 325.288,291.688 319.5,291.5C 319.332,271.511 318.832,271.511 318,291.5C 317.667,290.167 317.333,288.833 317,287.5C 316.838,277.965 316.671,268.465 316.5,259C 316.167,257.833 315.833,256.667 315.5,255.5C 314.808,256.025 314.308,256.692 314,257.5C 313.292,256.619 312.458,255.953 311.5,255.5C 307.849,248.667 303.183,242.5 297.5,237C 291.739,233.792 286.072,230.625 280.5,227.5C 276.854,225.326 272.854,223.993 268.5,223.5C 268.586,222.504 268.252,221.671 267.5,221C 239.149,220.143 210.816,220.476 182.5,222C 181.944,222.383 181.611,222.883 181.5,223.5C 181.167,223.5 180.833,223.5 180.5,223.5C 177.302,222.964 174.635,223.631 172.5,225.5C 142.923,232.983 128.59,251.983 129.5,282.5C 130.5,282.5 131.5,282.5 132.5,282.5C 133.5,282.5 134.5,282.5 135.5,282.5C 135.441,284.765 136.274,285.098 138,283.5C 140.835,286.341 144.335,287.841 148.5,288C 146.779,288.739 145.113,289.573 143.5,290.5C 144,290.833 144.5,291.167 145,291.5C 152.954,290.285 160.787,290.952 168.5,293.5C 169.672,293.081 170.672,292.415 171.5,291.5C 173.177,293.54 174.844,295.54 176.5,297.5C 176.906,296.443 176.906,295.109 176.5,293.5C 177.5,293.5 178.5,293.5 179.5,293.5C 179.244,291.088 180.244,289.421 182.5,288.5C 181.311,287.571 179.978,287.238 178.5,287.5C 178.778,289.346 178.111,290.68 176.5,291.5C 175.614,290.675 175.281,289.675 175.5,288.5C 171.958,288.62 168.458,288.286 165,287.5C 162.637,288.955 160.137,289.455 157.5,289C 159.768,287.448 162.268,286.615 165,286.5C 168.535,287.51 172.035,287.51 175.5,286.5C 171.957,285.222 168.957,283.222 166.5,280.5C 171.097,282.032 175.764,283.365 180.5,284.5C 198.663,293.122 209.329,307.456 212.5,327.5C 212.5,340.167 212.5,352.833 212.5,365.5C 208.423,390.411 194.423,406.911 170.5,415C 168.527,415.495 166.527,415.662 164.5,415.5C 153.73,415.88 143.063,415.047 132.5,413C 128.347,410.673 124.013,408.84 119.5,407.5C 102.691,395.226 93.6913,378.559 92.5,357.5C 92.0802,347.72 92.9135,338.053 95,328.5C 97.9438,324.322 99.1105,319.655 98.5,314.5C 100.098,310.289 102.432,306.622 105.5,303.5C 112.831,298.086 115.331,290.753 113,281.5C 112.722,280.584 112.222,279.918 111.5,279.5C 109.983,273.445 108.149,267.445 106,261.5C 101.219,256.919 97.7189,251.586 95.5,245.5C 94.1667,234.5 94.1667,223.5 95.5,212.5C 105.237,212.367 114.571,210.7 123.5,207.5C 124.833,207.5 126.167,207.5 127.5,207.5C 138.434,207.806 149.1,206.806 159.5,204.5C 181.468,202.503 203.468,201.836 225.5,202.5 Z"/></g>
<g><path style="opacity:1" fill="#acb93d" d="M 319.5,228.5 C 322.47,229.549 325.47,230.716 328.5,232C 347.879,234.031 367.212,233.864 386.5,231.5C 385.942,232.79 384.942,233.623 383.5,234C 365.5,234.333 347.5,234.667 329.5,235C 329.833,235.333 330.167,235.667 330.5,236C 328.741,236.798 327.074,236.631 325.5,235.5C 326.397,235.331 327.397,234.998 328.5,234.5C 326.517,232.329 324.017,230.995 321,230.5C 319.97,230.164 319.47,229.497 319.5,228.5 Z"/></g>
<g><path style="opacity:1" fill="#a2ad4b" d="M 265.5,223.5 C 266.5,223.5 267.5,223.5 268.5,223.5C 272.854,223.993 276.854,225.326 280.5,227.5C 275.261,226.659 270.261,225.326 265.5,223.5 Z"/></g>
<g><path style="opacity:1" fill="#9aa449" d="M 180.5,223.5 C 178.039,224.531 175.373,225.198 172.5,225.5C 174.635,223.631 177.302,222.964 180.5,223.5 Z"/></g>
<g><path style="opacity:1" fill="#8f9834" d="M 471.5,222.5 C 486.991,221.504 502.658,221.17 518.5,221.5C 527.412,220.558 535.746,221.891 543.5,225.5C 538.125,224.993 532.792,224.16 527.5,223C 508.836,222.5 490.17,222.333 471.5,222.5 Z"/></g>
<g><path style="opacity:1" fill="#bcca4d" d="M 518.5,221.5 C 502.658,221.17 486.991,221.504 471.5,222.5C 465.149,222.557 458.815,222.89 452.5,223.5C 452.611,222.883 452.944,222.383 453.5,222C 475.319,220.397 496.986,220.231 518.5,221.5 Z"/></g>
<g><path style="opacity:1" fill="#a8b43d" d="M 268.5,223.5 C 267.5,223.5 266.5,223.5 265.5,223.5C 237.507,222.185 209.507,222.185 181.5,223.5C 181.611,222.883 181.944,222.383 182.5,222C 210.816,220.476 239.149,220.143 267.5,221C 268.252,221.671 268.586,222.504 268.5,223.5 Z"/></g>
<g><path style="opacity:1" fill="#b2c043" d="M 281.5,211.5 C 292.039,212.448 301.372,216.115 309.5,222.5C 303.844,220.675 298.511,218.175 293.5,215C 289.781,214.612 286.114,213.945 282.5,213C 281.944,212.617 281.611,212.117 281.5,211.5 Z"/></g>
<g><path style="opacity:1" fill="#96a13e" d="M 447.5,207.5 C 447.389,208.117 447.056,208.617 446.5,209C 440.182,210.273 433.849,211.44 427.5,212.5C 433.862,210.054 440.529,208.388 447.5,207.5 Z"/></g>
<g><path style="opacity:1" fill="#b9c73f" d="M 412.5,241.5 C 405.044,250.217 400.711,260.217 399.5,271.5C 399.334,265.491 399.501,259.491 400,253.5C 400.308,254.308 400.808,254.975 401.5,255.5C 402.747,253.994 402.747,252.494 401.5,251C 402.793,250.51 404.127,250.343 405.5,250.5C 405.5,248.833 405.5,247.167 405.5,245.5C 406.5,245.5 407.5,245.5 408.5,245.5C 408.5,244.167 408.5,242.833 408.5,241.5C 409.833,241.5 411.167,241.5 412.5,241.5 Z"/></g>
<g><path style="opacity:1" fill="#bdcc3d" d="M 503.5,203.5 C 503.5,203.167 503.5,202.833 503.5,202.5C 543.213,201.794 582.546,205.128 621.5,212.5C 621.833,214.833 622.167,217.167 622.5,219.5C 621.534,229.822 620.701,240.156 620,250.5C 612.369,255.794 607.203,262.794 604.5,271.5C 604.507,268.962 604.841,266.462 605.5,264C 605.245,262.674 604.578,261.674 603.5,261C 604.64,259.027 605.973,257.193 607.5,255.5C 608.167,255.833 608.833,256.167 609.5,256.5C 611.425,253.262 614.092,250.929 617.5,249.5C 616.675,248.614 615.675,248.281 614.5,248.5C 614.337,246.143 614.503,243.81 615,241.5C 620.357,232.987 621.857,223.82 619.5,214C 601.102,211.758 582.769,209.091 564.5,206C 544.207,204.146 523.874,203.313 503.5,203.5 Z"/></g>
<g><path style="opacity:1" fill="#353c0c" d="M 580.5,255.5 C 581.924,257.515 582.59,259.848 582.5,262.5C 581.076,260.485 580.41,258.152 580.5,255.5 Z"/></g>
<g><path style="opacity:1" fill="#9ca640" d="M 313.5,265.5 C 314.268,266.263 314.768,267.263 315,268.5C 315.499,272.821 315.666,277.154 315.5,281.5C 314.619,276.331 313.952,270.998 313.5,265.5 Z"/></g>
<g><path style="opacity:1" fill="#a9b44d" d="M 180.5,284.5 C 175.764,283.365 171.097,282.032 166.5,280.5C 158.677,279.344 150.677,279.177 142.5,280C 140.1,280.744 137.767,281.577 135.5,282.5C 134.5,282.5 133.5,282.5 132.5,282.5C 134.96,281.109 137.626,279.942 140.5,279C 149.5,278.333 158.5,278.333 167.5,279C 172.056,280.566 176.39,282.399 180.5,284.5 Z"/></g>
<g><path style="opacity:1" fill="#c9db2a" d="M 166.5,280.5 C 168.957,283.222 171.957,285.222 175.5,286.5C 172.035,287.51 168.535,287.51 165,286.5C 162.268,286.615 159.768,287.448 157.5,289C 160.137,289.455 162.637,288.955 165,287.5C 168.458,288.286 171.958,288.62 175.5,288.5C 175.281,289.675 175.614,290.675 176.5,291.5C 178.111,290.68 178.778,289.346 178.5,287.5C 179.978,287.238 181.311,287.571 182.5,288.5C 180.244,289.421 179.244,291.088 179.5,293.5C 178.5,293.5 177.5,293.5 176.5,293.5C 176.906,295.109 176.906,296.443 176.5,297.5C 174.844,295.54 173.177,293.54 171.5,291.5C 170.672,292.415 169.672,293.081 168.5,293.5C 160.787,290.952 152.954,290.285 145,291.5C 144.5,291.167 144,290.833 143.5,290.5C 145.113,289.573 146.779,288.739 148.5,288C 144.335,287.841 140.835,286.341 138,283.5C 136.274,285.098 135.441,284.765 135.5,282.5C 137.767,281.577 140.1,280.744 142.5,280C 150.677,279.177 158.677,279.344 166.5,280.5 Z"/></g>
<g><path style="opacity:1" fill="#c2d13e" d="M 311.5,255.5 C 312.458,255.953 313.292,256.619 314,257.5C 314.308,256.692 314.808,256.025 315.5,255.5C 315.833,256.667 316.167,257.833 316.5,259C 316.671,268.465 316.838,277.965 317,287.5C 317.333,288.833 317.667,290.167 318,291.5C 318.832,271.511 319.332,271.511 319.5,291.5C 325.288,291.688 330.955,291.022 336.5,289.5C 336.682,287.409 336.348,285.409 335.5,283.5C 335.938,282.494 336.604,282.494 337.5,283.5C 338.747,281.994 338.747,280.494 337.5,279C 338.624,278.751 339.624,278.251 340.5,277.5C 338.989,275.162 339.323,274.496 341.5,275.5C 342.429,274.311 342.762,272.978 342.5,271.5C 343.833,271.5 345.167,271.5 346.5,271.5C 341.635,276.898 338.635,283.231 337.5,290.5C 336.596,291.209 336.263,292.209 336.5,293.5C 329.219,294.071 322.219,293.405 315.5,291.5C 315.5,288.167 315.5,284.833 315.5,281.5C 315.666,277.154 315.499,272.821 315,268.5C 314.768,267.263 314.268,266.263 313.5,265.5C 312.207,262.321 311.54,258.988 311.5,255.5 Z"/></g>
<g><path style="opacity:1" fill="#c6d82f" d="M 433.5,283.5 C 434.373,287.768 434.706,292.102 434.5,296.5C 433.127,296.343 431.793,296.51 430.5,297C 430.957,297.414 431.291,297.914 431.5,298.5C 430.757,299.182 430.091,299.849 429.5,300.5C 418.691,303.202 413.858,298.869 415,287.5C 417.864,281.311 422.697,279.144 429.5,281C 431.32,281.2 432.653,282.034 433.5,283.5 Z"/></g>
<g><path style="opacity:1" fill="#595f1b" d="M 399.5,276.5 C 399.093,282.161 398.76,287.828 398.5,293.5C 391.313,293.825 384.313,293.491 377.5,292.5C 384.167,292.5 390.833,292.5 397.5,292.5C 397.156,286.902 397.822,281.568 399.5,276.5 Z"/></g>
<g><path style="opacity:1" fill="#aebb47" d="M 433.5,283.5 C 434.79,284.058 435.623,285.058 436,286.5C 437.294,291.708 436.128,296.208 432.5,300C 431.552,300.483 430.552,300.649 429.5,300.5C 430.091,299.849 430.757,299.182 431.5,298.5C 431.291,297.914 430.957,297.414 430.5,297C 431.793,296.51 433.127,296.343 434.5,296.5C 434.706,292.102 434.373,287.768 433.5,283.5 Z"/></g>
<g><path style="opacity:1" fill="#010101" d="M 164.5,401.5 C 158.87,402.292 153.203,402.625 147.5,402.5C 142.399,402.3 137.733,400.8 133.5,398C 129.666,394.998 126,391.831 122.5,388.5C 111.934,372.369 108.268,354.702 111.5,335.5C 113.64,314.866 124.307,300.7 143.5,293C 167.149,290.065 183.315,299.565 192,321.5C 198.499,341.513 197.499,361.18 189,380.5C 183.742,390.927 175.575,397.927 164.5,401.5 Z"/></g>
<g><path style="opacity:1" fill="#31360b" d="M 337.5,290.5 C 337.5,291.833 337.5,293.167 337.5,294.5C 330.167,294.5 322.833,294.5 315.5,294.5C 315.5,293.5 315.5,292.5 315.5,291.5C 322.219,293.405 329.219,294.071 336.5,293.5C 336.263,292.209 336.596,291.209 337.5,290.5 Z"/></g>
<g><path style="opacity:1" fill="#434a0e" d="M 369.5,291.5 C 370.209,290.596 371.209,290.263 372.5,290.5C 372.5,299.833 372.5,309.167 372.5,318.5C 372.167,318.5 371.833,318.5 371.5,318.5C 372.138,309.105 371.471,300.105 369.5,291.5 Z"/></g>
<g><path style="opacity:1" fill="#a6b144" d="M 111.5,279.5 C 112.222,279.918 112.722,280.584 113,281.5C 115.331,290.753 112.831,298.086 105.5,303.5C 106.667,299.853 108.834,296.853 112,294.5C 112.498,289.481 112.332,284.481 111.5,279.5 Z"/></g>
<g><path style="opacity:1" fill="#99a448" d="M 356.5,294.5 C 355.863,302.266 355.196,309.933 354.5,317.5C 353.868,309.427 354.535,301.76 356.5,294.5 Z"/></g>
<g><path style="opacity:1" fill="#b5c34a" d="M 369.5,291.5 C 371.471,300.105 372.138,309.105 371.5,318.5C 370.507,310.016 370.174,301.349 370.5,292.5C 366.524,293.295 362.524,293.962 358.5,294.5C 361.809,292.63 365.475,291.63 369.5,291.5 Z"/></g>
<g><path style="opacity:1" fill="#a4ae47" d="M 598.5,308.5 C 597.677,315.497 596.01,322.164 593.5,328.5C 594.714,323.216 595.714,317.882 596.5,312.5C 596.66,310.847 597.326,309.514 598.5,308.5 Z"/></g>
<g><path style="opacity:1" fill="#a2aa50" d="M 301.5,319.5 C 300.833,319.5 300.167,319.5 299.5,319.5C 298.391,319.443 297.391,319.11 296.5,318.5C 288.982,317.291 281.315,317.291 273.5,318.5C 274.263,317.732 275.263,317.232 276.5,317C 283.5,316.333 290.5,316.333 297.5,317C 299.066,317.608 300.4,318.442 301.5,319.5 Z"/></g>
<g><path style="opacity:1" fill="#9ba549" d="M 520.5,317.5 C 512.493,317.334 504.493,317.5 496.5,318C 495.263,318.232 494.263,318.732 493.5,319.5C 492.167,319.5 490.833,319.5 489.5,319.5C 491.277,318.4 493.277,317.566 495.5,317C 504.01,316.177 512.344,316.343 520.5,317.5 Z"/></g>
<g><path style="opacity:1" fill="#b3bf5f" d="M 371.5,318.5 C 371.833,318.5 372.167,318.5 372.5,318.5C 380.833,318.5 389.167,318.5 397.5,318.5C 397.5,322.833 397.5,327.167 397.5,331.5C 388.833,331.5 380.167,331.5 371.5,331.5C 379.65,330.507 387.983,330.174 396.5,330.5C 396.5,326.833 396.5,323.167 396.5,319.5C 387.983,319.826 379.65,319.493 371.5,318.5 Z"/></g>
<g><path style="opacity:1" fill="#a7af61" d="M 417.5,319.5 C 417.5,319.167 417.5,318.833 417.5,318.5C 423.167,318.5 428.833,318.5 434.5,318.5C 434.832,351.004 434.498,383.338 433.5,415.5C 433.5,415.167 433.5,414.833 433.5,414.5C 433.832,382.662 433.498,350.996 432.5,319.5C 427.833,319.5 423.167,319.5 418.5,319.5C 418.167,319.5 417.833,319.5 417.5,319.5 Z"/></g>
<g><path style="opacity:1" fill="#c0cf33" d="M 583.5,271.5 C 584.228,287.009 584.895,302.675 585.5,318.5C 585.472,322.899 584.972,323.232 584,319.5C 583.333,323.833 583.333,328.167 584,332.5C 586.125,331.516 587.292,329.85 587.5,327.5C 588.15,322.851 588.65,318.184 589,313.5C 590.163,315.285 590.83,317.285 591,319.5C 591.219,318.062 591.719,316.729 592.5,315.5C 593.192,316.025 593.692,316.692 594,317.5C 594.72,315.888 594.554,314.388 593.5,313C 594.448,312.517 595.448,312.351 596.5,312.5C 595.714,317.882 594.714,323.216 593.5,328.5C 590.49,345.387 585.657,361.721 579,377.5C 578.623,378.942 577.79,379.942 576.5,380.5C 576.461,379.417 576.127,378.417 575.5,377.5C 576.325,376.614 577.325,376.281 578.5,376.5C 578.214,374.723 577.547,373.056 576.5,371.5C 576.833,370.833 577.167,370.167 577.5,369.5C 578.251,370.376 578.751,371.376 579,372.5C 581.11,369.329 581.61,365.996 580.5,362.5C 581.325,361.614 582.325,361.281 583.5,361.5C 585.587,354.064 587.587,346.564 589.5,339C 589.167,337.833 588.833,336.667 588.5,335.5C 588.167,335.667 587.833,335.833 587.5,336C 586.932,338.684 585.932,341.184 584.5,343.5C 584.574,341.688 584.241,339.688 583.5,337.5C 581.931,338.714 581.098,340.381 581,342.5C 580.751,341.376 580.251,340.376 579.5,339.5C 579.002,342.593 578.002,345.426 576.5,348C 577.022,348.561 577.355,349.228 577.5,350C 576.354,350.759 575.354,351.426 574.5,352C 575,353.5 575.5,355 576,356.5C 576.667,355.833 577.333,355.167 578,354.5C 578.528,357.219 578.028,359.719 576.5,362C 576.354,364.188 577.354,365.521 579.5,366C 577.863,367.951 576.363,367.784 575,365.5C 575.263,366.951 575.096,368.284 574.5,369.5C 573.5,368.167 572.5,366.833 571.5,365.5C 569.275,367.11 566.941,368.443 564.5,369.5C 570.503,357.988 575.336,345.988 579,333.5C 582.682,313.013 584.182,292.346 583.5,271.5 Z"/></g>
<g><path style="opacity:1" fill="#9fa850" d="M 528.5,319.5 C 531.906,319.994 532.906,321.661 531.5,324.5C 531.279,322.336 530.279,320.67 528.5,319.5 Z"/></g>
<g><path style="opacity:1" fill="#939c37" d="M 98.5,314.5 C 99.1105,319.655 97.9438,324.322 95,328.5C 92.9135,338.053 92.0802,347.72 92.5,357.5C 90.2587,342.609 92.2587,328.276 98.5,314.5 Z"/></g>
<g><path style="opacity:1" fill="#bbc757" d="M 354.5,318.5 C 350.03,319.486 345.363,319.819 340.5,319.5C 340.5,323.167 340.5,326.833 340.5,330.5C 345.363,330.181 350.03,330.514 354.5,331.5C 349.5,331.5 344.5,331.5 339.5,331.5C 339.5,327.167 339.5,322.833 339.5,318.5C 344.5,318.5 349.5,318.5 354.5,318.5 Z"/></g>
<g><path style="opacity:1" fill="#c9da29" d="M 296.5,318.5 C 297.391,319.11 298.391,319.443 299.5,319.5C 299.103,321.662 297.769,322.995 295.5,323.5C 296.833,325.167 298.167,326.833 299.5,328.5C 298.289,329.72 298.289,330.887 299.5,332C 298.207,332.49 296.873,332.657 295.5,332.5C 295.688,330.897 295.188,329.563 294,328.5C 287.91,330.041 282.077,329.374 276.5,326.5C 275.614,327.325 275.281,328.325 275.5,329.5C 270.606,328.46 270.273,326.46 274.5,323.5C 273.975,322.808 273.308,322.308 272.5,322C 274.525,320.323 276.859,319.323 279.5,319C 285.157,318.501 290.824,318.334 296.5,318.5 Z"/></g>
<g><path style="opacity:1" fill="#6d7529" d="M 417.5,318.5 C 417.5,318.833 417.5,319.167 417.5,319.5C 417.5,351.167 417.5,382.833 417.5,414.5C 422.833,414.5 428.167,414.5 433.5,414.5C 433.5,414.833 433.5,415.167 433.5,415.5C 427.833,415.5 422.167,415.5 416.5,415.5C 416.168,382.996 416.502,350.662 417.5,318.5 Z"/></g>
<g><path style="opacity:1" fill="#c4d335" d="M 296.5,318.5 C 290.824,318.334 285.157,318.501 279.5,319C 276.859,319.323 274.525,320.323 272.5,322C 273.308,322.308 273.975,322.808 274.5,323.5C 270.273,326.46 270.606,328.46 275.5,329.5C 275.281,328.325 275.614,327.325 276.5,326.5C 282.077,329.374 287.91,330.041 294,328.5C 295.188,329.563 295.688,330.897 295.5,332.5C 296.873,332.657 298.207,332.49 299.5,332C 298.289,330.887 298.289,329.72 299.5,328.5C 298.167,326.833 296.833,325.167 295.5,323.5C 297.769,322.995 299.103,321.662 299.5,319.5C 300.167,319.5 300.833,319.5 301.5,319.5C 315.452,324.695 323.785,334.695 326.5,349.5C 325.431,345.654 323.431,342.321 320.5,339.5C 319.808,340.025 319.308,340.692 319,341.5C 318.206,338.851 316.706,336.684 314.5,335C 315.885,333.035 315.718,331.202 314,329.5C 313.667,330.167 313.333,330.833 313,331.5C 312.612,330.572 311.945,329.905 311,329.5C 309.036,330.464 307.37,331.797 306,333.5C 303.922,332.057 303.089,332.724 303.5,335.5C 304.675,335.281 305.675,335.614 306.5,336.5C 305.833,336.833 305.167,337.167 304.5,337.5C 305.502,339.51 306.502,341.51 307.5,343.5C 310.133,342.218 310.133,340.884 307.5,339.5C 308.89,337.831 309.223,336.164 308.5,334.5C 310.418,331.971 311.418,332.137 311.5,335C 309.501,337.991 309.501,341.158 311.5,344.5C 312.167,342.5 312.833,340.5 313.5,338.5C 314.086,338.709 314.586,339.043 315,339.5C 316.246,343.73 315.08,347.064 311.5,349.5C 310.526,351.743 310.192,354.076 310.5,356.5C 306.087,337.249 294.087,328.749 274.5,331C 269.744,333.269 265.41,336.103 261.5,339.5C 261.703,337.61 261.037,336.11 259.5,335C 261.107,335.019 262.774,335.185 264.5,335.5C 264.5,334.5 264.5,333.5 264.5,332.5C 266.288,332.785 267.955,332.452 269.5,331.5C 267.771,330.403 266.104,329.237 264.5,328C 265.448,327.517 266.448,327.351 267.5,327.5C 267.5,326.5 267.5,325.5 267.5,324.5C 268.978,324.762 270.311,324.429 271.5,323.5C 269.579,322.359 267.579,322.192 265.5,323C 261.267,327.233 257.1,331.4 253,335.5C 252.055,335.095 251.388,334.428 251,333.5C 250.501,328.845 250.334,324.179 250.5,319.5C 251.167,323.833 251.833,328.167 252.5,332.5C 252.369,333.239 252.536,333.906 253,334.5C 257.985,326.669 264.818,321.336 273.5,318.5C 281.315,317.291 288.982,317.291 296.5,318.5 Z"/></g>
<g><path style="opacity:1" fill="#c5d535" d="M 520.5,317.5 C 523.327,317.584 525.994,318.25 528.5,319.5C 530.279,320.67 531.279,322.336 531.5,324.5C 531.198,327.373 530.531,330.039 529.5,332.5C 526.774,332.736 524.441,331.903 522.5,330C 515.321,329.179 508.321,329.345 501.5,330.5C 487.441,334.559 478.441,343.559 474.5,357.5C 474.489,355.453 474.156,353.453 473.5,351.5C 476.946,348.598 478.112,344.931 477,340.5C 472.475,348.631 469.475,347.964 468,338.5C 465.481,340.212 464.981,342.379 466.5,345C 465.207,345.49 463.873,345.657 462.5,345.5C 463.301,343.958 463.634,342.292 463.5,340.5C 469.073,330.264 477.406,323.264 488.5,319.5C 487.013,321.605 485.013,323.272 482.5,324.5C 481.833,327.167 481.167,329.833 480.5,332.5C 479.858,329.203 478.691,328.869 477,331.5C 477.135,333.425 477.302,335.425 477.5,337.5C 479.924,337.808 482.257,337.474 484.5,336.5C 483.96,335.252 483.293,334.085 482.5,333C 484.416,329.839 486.25,330.006 488,333.5C 491.599,332.466 495.099,331.133 498.5,329.5C 496.244,328.579 495.244,326.912 495.5,324.5C 496.93,324.579 498.264,324.246 499.5,323.5C 499.694,325.07 499.694,326.57 499.5,328C 506.167,328.667 512.833,328.667 519.5,328C 522.435,324.307 525.769,323.474 529.5,325.5C 530.386,324.675 530.719,323.675 530.5,322.5C 525.416,322.834 520.749,321.668 516.5,319C 508.805,318.309 501.139,318.475 493.5,319.5C 494.263,318.732 495.263,318.232 496.5,318C 504.493,317.5 512.493,317.334 520.5,317.5 Z"/></g>
<g><path style="opacity:1" fill="#949c49" d="M 252.5,332.5 C 251.833,328.167 251.167,323.833 250.5,319.5C 246.5,319.5 242.5,319.5 238.5,319.5C 237.501,363.997 237.168,408.664 237.5,453.5C 237.5,453.833 237.5,454.167 237.5,454.5C 236.501,409.336 236.168,364.003 236.5,318.5C 241.833,318.5 247.167,318.5 252.5,318.5C 252.5,323.167 252.5,327.833 252.5,332.5 Z"/></g>
<g><path style="opacity:1" fill="#b5c246" d="M 501.5,330.5 C 508.321,329.345 515.321,329.179 522.5,330C 524.441,331.903 526.774,332.736 529.5,332.5C 529.631,333.376 529.298,334.043 528.5,334.5C 519.911,330.85 510.911,329.517 501.5,330.5 Z"/></g>
<g><path style="opacity:1" fill="#020201" d="M 310.5,356.5 C 312.393,369.766 309.893,382.099 303,393.5C 299.118,397.571 294.618,400.571 289.5,402.5C 270.722,405.697 259.222,398.03 255,379.5C 254.5,371.173 254.334,362.84 254.5,354.5C 256.03,349.108 258.363,344.108 261.5,339.5C 265.41,336.103 269.744,333.269 274.5,331C 294.087,328.749 306.087,337.249 310.5,356.5 Z"/></g>
<g><path style="opacity:1" fill="#b9c848" d="M 371.5,331.5 C 371.17,351.007 371.503,370.341 372.5,389.5C 372.963,392.221 373.629,394.888 374.5,397.5C 372.883,395.879 371.716,393.879 371,391.5C 370.171,371.329 370.338,351.329 371.5,331.5 Z"/></g>
<g><path style="opacity:1" fill="#c9da28" d="M 488.5,319.5 C 488.833,319.5 489.167,319.5 489.5,319.5C 490.833,319.5 492.167,319.5 493.5,319.5C 501.139,318.475 508.805,318.309 516.5,319C 520.749,321.668 525.416,322.834 530.5,322.5C 530.719,323.675 530.386,324.675 529.5,325.5C 525.769,323.474 522.435,324.307 519.5,328C 512.833,328.667 506.167,328.667 499.5,328C 499.694,326.57 499.694,325.07 499.5,323.5C 498.264,324.246 496.93,324.579 495.5,324.5C 495.244,326.912 496.244,328.579 498.5,329.5C 495.099,331.133 491.599,332.466 488,333.5C 486.25,330.006 484.416,329.839 482.5,333C 483.293,334.085 483.96,335.252 484.5,336.5C 482.257,337.474 479.924,337.808 477.5,337.5C 477.302,335.425 477.135,333.425 477,331.5C 478.691,328.869 479.858,329.203 480.5,332.5C 481.167,329.833 481.833,327.167 482.5,324.5C 485.013,323.272 487.013,321.605 488.5,319.5 Z"/></g>
<g><path style="opacity:1" fill="#191b00" d="M 339.5,331.5 C 344.5,331.5 349.5,331.5 354.5,331.5C 354.5,350.167 354.5,368.833 354.5,387.5C 353.503,369.341 353.17,351.008 353.5,332.5C 348.637,332.819 343.97,332.486 339.5,331.5 Z"/></g>
<g><path style="opacity:1" fill="#3e4308" d="M 371.5,331.5 C 380.167,331.5 388.833,331.5 397.5,331.5C 389.35,332.493 381.017,332.826 372.5,332.5C 372.5,351.5 372.5,370.5 372.5,389.5C 371.503,370.341 371.17,351.007 371.5,331.5 Z"/></g>
<g><path style="opacity:1" fill="#c9da2b" d="M 371.5,318.5 C 379.65,319.493 387.983,319.826 396.5,319.5C 396.5,323.167 396.5,326.833 396.5,330.5C 387.983,330.174 379.65,330.507 371.5,331.5C 370.338,351.329 370.171,371.329 371,391.5C 371.716,393.879 372.883,395.879 374.5,397.5C 374.5,398.833 374.5,400.167 374.5,401.5C 379.491,401.728 380.157,403.061 376.5,405.5C 377.955,406.745 379.289,406.578 380.5,405C 385.118,404.006 389.785,403.506 394.5,403.5C 394.5,407.167 394.5,410.833 394.5,414.5C 392.901,414.232 391.568,414.566 390.5,415.5C 390.167,415.5 389.833,415.5 389.5,415.5C 382.132,415.683 374.799,415.35 367.5,414.5C 361.635,411.101 357.969,406.101 356.5,399.5C 357.156,376.475 356.49,353.809 354.5,331.5C 350.03,330.514 345.363,330.181 340.5,330.5C 340.5,326.833 340.5,323.167 340.5,319.5C 345.363,319.819 350.03,319.486 354.5,318.5C 354.5,318.167 354.5,317.833 354.5,317.5C 355.196,309.933 355.863,302.266 356.5,294.5C 357.167,294.5 357.833,294.5 358.5,294.5C 362.524,293.962 366.524,293.295 370.5,292.5C 370.174,301.349 370.507,310.016 371.5,318.5 Z"/></g>
<g><path style="opacity:1" fill="#bac748" d="M 212.5,327.5 C 213.29,328.609 213.79,329.942 214,331.5C 214.167,336.333 214.333,341.167 214.5,346C 214.72,352.746 214.054,359.246 212.5,365.5C 212.5,352.833 212.5,340.167 212.5,327.5 Z"/></g>
<g><path style="opacity:1" fill="#a4b03e" d="M 463.5,340.5 C 463.634,342.292 463.301,343.958 462.5,345.5C 463.323,347.455 463.49,349.455 463,351.5C 462.751,350.376 462.251,349.376 461.5,348.5C 460.667,350.5 459.833,352.5 459,354.5C 458.5,363.16 458.334,371.827 458.5,380.5C 457.778,380.082 457.278,379.416 457,378.5C 455.693,367.576 456.693,356.909 460,346.5C 460.941,344.273 462.108,342.273 463.5,340.5 Z"/></g>
<g><path style="opacity:1" fill="#c9da2a" d="M 474.5,357.5 C 474.5,357.833 474.5,358.167 474.5,358.5C 473.883,358.611 473.383,358.944 473,359.5C 472.667,364.167 472.333,368.833 472,373.5C 471.421,376.588 470.087,379.255 468,381.5C 467.667,384.5 467.333,387.5 467,390.5C 465.883,390.665 464.716,390.998 463.5,391.5C 462.582,388.516 461.248,385.849 459.5,383.5C 458.596,382.791 458.263,381.791 458.5,380.5C 458.334,371.827 458.5,363.16 459,354.5C 459.833,352.5 460.667,350.5 461.5,348.5C 462.251,349.376 462.751,350.376 463,351.5C 463.49,349.455 463.323,347.455 462.5,345.5C 463.873,345.657 465.207,345.49 466.5,345C 464.981,342.379 465.481,340.212 468,338.5C 469.475,347.964 472.475,348.631 477,340.5C 478.112,344.931 476.946,348.598 473.5,351.5C 474.156,353.453 474.489,355.453 474.5,357.5 Z"/></g>
<g><path style="opacity:1" fill="#b5c148" d="M 354.5,331.5 C 356.49,353.809 357.156,376.475 356.5,399.5C 354.864,395.79 354.198,391.79 354.5,387.5C 354.5,368.833 354.5,350.167 354.5,331.5 Z"/></g>
<g><path style="opacity:1" fill="#c7d54d" d="M 238.5,319.5 C 238.172,364.239 238.506,408.905 239.5,453.5C 238.833,453.5 238.167,453.5 237.5,453.5C 237.168,408.664 237.501,363.997 238.5,319.5 Z"/></g>
<g><path style="opacity:1" fill="#c9da2a" d="M 576.5,380.5 C 574.18,381.959 572.18,383.792 570.5,386C 570.833,386.333 571.167,386.667 571.5,387C 570.101,387.595 568.768,387.428 567.5,386.5C 565.297,389.109 564.297,392.109 564.5,395.5C 563.5,395.5 562.5,395.5 561.5,395.5C 560.82,399.322 558.487,400.989 554.5,400.5C 554.5,401.833 554.5,403.167 554.5,404.5C 551.551,402.944 548.884,403.278 546.5,405.5C 543.177,404.062 542.844,402.229 545.5,400C 544.833,399.667 544.167,399.333 543.5,399C 544.618,397.926 545.618,396.76 546.5,395.5C 547.799,396.09 548.632,397.09 549,398.5C 549.5,398 550,397.5 550.5,397C 546.256,393.376 546.589,390.876 551.5,389.5C 551.5,388.5 551.5,387.5 551.5,386.5C 552.5,386.5 553.5,386.5 554.5,386.5C 556.12,383.193 557.787,379.86 559.5,376.5C 560.811,373.865 562.478,371.531 564.5,369.5C 566.941,368.443 569.275,367.11 571.5,365.5C 572.5,366.833 573.5,368.167 574.5,369.5C 575.096,368.284 575.263,366.951 575,365.5C 576.363,367.784 577.863,367.951 579.5,366C 577.354,365.521 576.354,364.188 576.5,362C 578.028,359.719 578.528,357.219 578,354.5C 577.333,355.167 576.667,355.833 576,356.5C 575.5,355 575,353.5 574.5,352C 575.354,351.426 576.354,350.759 577.5,350C 577.355,349.228 577.022,348.561 576.5,348C 578.002,345.426 579.002,342.593 579.5,339.5C 580.251,340.376 580.751,341.376 581,342.5C 581.098,340.381 581.931,338.714 583.5,337.5C 584.241,339.688 584.574,341.688 584.5,343.5C 585.932,341.184 586.932,338.684 587.5,336C 587.833,335.833 588.167,335.667 588.5,335.5C 588.833,336.667 589.167,337.833 589.5,339C 587.587,346.564 585.587,354.064 583.5,361.5C 582.325,361.281 581.325,361.614 580.5,362.5C 581.61,365.996 581.11,369.329 579,372.5C 578.751,371.376 578.251,370.376 577.5,369.5C 577.167,370.167 576.833,370.833 576.5,371.5C 577.547,373.056 578.214,374.723 578.5,376.5C 577.325,376.281 576.325,376.614 575.5,377.5C 576.127,378.417 576.461,379.417 576.5,380.5 Z"/></g>
<g><path style="opacity:1" fill="#b1bd40" d="M 111.5,335.5 C 108.268,354.702 111.934,372.369 122.5,388.5C 120.958,387.699 119.292,387.366 117.5,387.5C 117.33,386.178 117.663,385.011 118.5,384C 116.712,382.168 115.378,380.002 114.5,377.5C 113.575,376.359 112.741,376.359 112,377.5C 111.502,375.473 111.669,373.473 112.5,371.5C 111.469,369.618 110.635,367.618 110,365.5C 109.833,360.5 109.667,355.5 109.5,350.5C 109.506,345.119 110.172,340.119 111.5,335.5 Z"/></g>
<g><path style="opacity:1" fill="#c9da2a" d="M 238.5,319.5 C 242.5,319.5 246.5,319.5 250.5,319.5C 250.334,324.179 250.501,328.845 251,333.5C 251.388,334.428 252.055,335.095 253,335.5C 257.1,331.4 261.267,327.233 265.5,323C 267.579,322.192 269.579,322.359 271.5,323.5C 270.311,324.429 268.978,324.762 267.5,324.5C 267.5,325.5 267.5,326.5 267.5,327.5C 266.448,327.351 265.448,327.517 264.5,328C 266.104,329.237 267.771,330.403 269.5,331.5C 267.955,332.452 266.288,332.785 264.5,332.5C 264.5,333.5 264.5,334.5 264.5,335.5C 262.774,335.185 261.107,335.019 259.5,335C 261.037,336.11 261.703,337.61 261.5,339.5C 258.363,344.108 256.03,349.108 254.5,354.5C 253.742,367.091 253.075,379.591 252.5,392C 254.167,392.333 255.833,392.667 257.5,393C 258.833,393.667 258.833,394.333 257.5,395C 259.619,395.098 261.286,395.931 262.5,397.5C 261.624,398.251 260.624,398.751 259.5,399C 261.577,399.192 263.577,399.692 265.5,400.5C 263.5,402.167 261.5,403.833 259.5,405.5C 258.833,404.5 258.167,403.5 257.5,402.5C 256.313,401.347 255.313,401.347 254.5,402.5C 254.5,403.167 254.5,403.833 254.5,404.5C 253.504,420.658 253.17,436.991 253.5,453.5C 248.833,453.5 244.167,453.5 239.5,453.5C 238.506,408.905 238.172,364.239 238.5,319.5 Z"/></g>
<g><path style="opacity:1" fill="#c4d44b" d="M 417.5,319.5 C 417.833,319.5 418.167,319.5 418.5,319.5C 418.5,350.833 418.5,382.167 418.5,413.5C 423.167,413.5 427.833,413.5 432.5,413.5C 432.5,382.167 432.5,350.833 432.5,319.5C 433.498,350.996 433.832,382.662 433.5,414.5C 428.167,414.5 422.833,414.5 417.5,414.5C 417.5,382.833 417.5,351.167 417.5,319.5 Z"/></g>
<g><path style="opacity:1" fill="#c9da2a" d="M 418.5,319.5 C 423.167,319.5 427.833,319.5 432.5,319.5C 432.5,350.833 432.5,382.167 432.5,413.5C 427.833,413.5 423.167,413.5 418.5,413.5C 418.5,382.167 418.5,350.833 418.5,319.5 Z"/></g>
<g><path style="opacity:1" fill="#c0cf3a" d="M 559.5,376.5 C 557.787,379.86 556.12,383.193 554.5,386.5C 553.5,386.5 552.5,386.5 551.5,386.5C 551.5,387.5 551.5,388.5 551.5,389.5C 546.589,390.876 546.256,393.376 550.5,397C 550,397.5 549.5,398 549,398.5C 548.632,397.09 547.799,396.09 546.5,395.5C 545.618,396.76 544.618,397.926 543.5,399C 544.167,399.333 544.833,399.667 545.5,400C 542.844,402.229 543.177,404.062 546.5,405.5C 548.884,403.278 551.551,402.944 554.5,404.5C 554.5,403.167 554.5,401.833 554.5,400.5C 558.487,400.989 560.82,399.322 561.5,395.5C 562.5,395.5 563.5,395.5 564.5,395.5C 564.297,392.109 565.297,389.109 567.5,386.5C 568.768,387.428 570.101,387.595 571.5,387C 571.167,386.667 570.833,386.333 570.5,386C 572.18,383.792 574.18,381.959 576.5,380.5C 576.392,382.783 575.559,384.783 574,386.5C 565.273,398.747 554.106,407.747 540.5,413.5C 539.81,407.8 539.31,402.133 539,396.5C 546.364,390.301 553.198,383.635 559.5,376.5 Z"/></g>
<g><path style="opacity:1" fill="#8a943c" d="M 164.5,401.5 C 161.474,403.019 158.141,403.685 154.5,403.5C 151.975,403.497 149.641,403.163 147.5,402.5C 153.203,402.625 158.87,402.292 164.5,401.5 Z"/></g>
<g><path style="opacity:1" fill="#b9c742" d="M 374.5,397.5 C 375.854,399.696 377.854,401.196 380.5,402C 385.511,402.388 390.511,402.222 395.5,401.5C 395.5,406.167 395.5,410.833 395.5,415.5C 393.833,415.5 392.167,415.5 390.5,415.5C 391.568,414.566 392.901,414.232 394.5,414.5C 394.5,410.833 394.5,407.167 394.5,403.5C 389.785,403.506 385.118,404.006 380.5,405C 379.289,406.578 377.955,406.745 376.5,405.5C 380.157,403.061 379.491,401.728 374.5,401.5C 374.5,400.167 374.5,398.833 374.5,397.5 Z"/></g>
<g><path style="opacity:1" fill="#bbc940" d="M 254.5,354.5 C 254.334,362.84 254.5,371.173 255,379.5C 259.222,398.03 270.722,405.697 289.5,402.5C 289.082,403.222 288.416,403.722 287.5,404C 285.333,404.167 283.167,404.333 281,404.5C 276.117,403.971 271.284,403.471 266.5,403C 264.896,404.237 263.229,405.403 261.5,406.5C 262.18,407.86 262.847,409.193 263.5,410.5C 260.573,409.243 258.239,407.243 256.5,404.5C 256.167,403.5 255.5,402.833 254.5,402.5C 255.313,401.347 256.313,401.347 257.5,402.5C 258.167,403.5 258.833,404.5 259.5,405.5C 261.5,403.833 263.5,402.167 265.5,400.5C 263.577,399.692 261.577,399.192 259.5,399C 260.624,398.751 261.624,398.251 262.5,397.5C 261.286,395.931 259.619,395.098 257.5,395C 258.833,394.333 258.833,393.667 257.5,393C 255.833,392.667 254.167,392.333 252.5,392C 253.075,379.591 253.742,367.091 254.5,354.5 Z"/></g>
<g><path style="opacity:1" fill="#b1bc46" d="M 527.5,399.5 C 528.189,398.226 529.023,398.226 530,399.5C 531.265,403.754 532.098,408.088 532.5,412.5C 527.24,413.921 521.907,414.921 516.5,415.5C 520.153,413.832 524.153,412.499 528.5,411.5C 529.912,407.236 529.579,403.236 527.5,399.5 Z"/></g>
<g><path style="opacity:1" fill="#c7d72d" d="M 474.5,358.5 C 473.274,370.929 476.107,382.263 483,392.5C 489.472,399.4 497.472,402.733 507,402.5C 514.017,402.474 520.85,401.474 527.5,399.5C 529.579,403.236 529.912,407.236 528.5,411.5C 524.153,412.499 520.153,413.832 516.5,415.5C 508.804,415.831 501.138,415.497 493.5,414.5C 487.92,413.363 482.587,411.696 477.5,409.5C 467.547,403.602 461.547,394.936 459.5,383.5C 461.248,385.849 462.582,388.516 463.5,391.5C 464.716,390.998 465.883,390.665 467,390.5C 467.333,387.5 467.667,384.5 468,381.5C 470.087,379.255 471.421,376.588 472,373.5C 472.333,368.833 472.667,364.167 473,359.5C 473.383,358.944 473.883,358.611 474.5,358.5 Z"/></g>
<g><path style="opacity:1" fill="#1e1f00" d="M 254.5,402.5 C 255.5,402.833 256.167,403.5 256.5,404.5C 255.833,421.167 255.167,437.833 254.5,454.5C 254.5,437.833 254.5,421.167 254.5,404.5C 254.5,403.833 254.5,403.167 254.5,402.5 Z"/></g>
<g><path style="opacity:1" fill="#adb949" d="M 477.5,409.5 C 482.587,411.696 487.92,413.363 493.5,414.5C 501.138,415.497 508.804,415.831 516.5,415.5C 506.95,418.112 497.284,417.946 487.5,415C 483.654,413.914 480.32,412.081 477.5,409.5 Z"/></g>
<g><path style="opacity:1" fill="#c6d72e" d="M 326.5,349.5 C 331.252,368.576 328.085,386.243 317,402.5C 310.928,410.117 303.095,414.451 293.5,415.5C 287.167,415.5 280.833,415.5 274.5,415.5C 270.206,415.205 266.539,413.538 263.5,410.5C 262.847,409.193 262.18,407.86 261.5,406.5C 263.229,405.403 264.896,404.237 266.5,403C 271.284,403.471 276.117,403.971 281,404.5C 283.167,404.333 285.333,404.167 287.5,404C 288.416,403.722 289.082,403.222 289.5,402.5C 294.618,400.571 299.118,397.571 303,393.5C 309.893,382.099 312.393,369.766 310.5,356.5C 310.192,354.076 310.526,351.743 311.5,349.5C 315.08,347.064 316.246,343.73 315,339.5C 314.586,339.043 314.086,338.709 313.5,338.5C 312.833,340.5 312.167,342.5 311.5,344.5C 309.501,341.158 309.501,337.991 311.5,335C 311.418,332.137 310.418,331.971 308.5,334.5C 309.223,336.164 308.89,337.831 307.5,339.5C 310.133,340.884 310.133,342.218 307.5,343.5C 306.502,341.51 305.502,339.51 304.5,337.5C 305.167,337.167 305.833,336.833 306.5,336.5C 305.675,335.614 304.675,335.281 303.5,335.5C 303.089,332.724 303.922,332.057 306,333.5C 307.37,331.797 309.036,330.464 311,329.5C 311.945,329.905 312.612,330.572 313,331.5C 313.333,330.833 313.667,330.167 314,329.5C 315.718,331.202 315.885,333.035 314.5,335C 316.706,336.684 318.206,338.851 319,341.5C 319.308,340.692 319.808,340.025 320.5,339.5C 323.431,342.321 325.431,345.654 326.5,349.5 Z"/></g>
<g><path style="opacity:1" fill="#abb745" d="M 119.5,407.5 C 124.013,408.84 128.347,410.673 132.5,413C 143.063,415.047 153.73,415.88 164.5,415.5C 148.313,419.529 133.313,416.863 119.5,407.5 Z"/></g>
<g><path style="opacity:1" fill="#b6c447" d="M 274.5,415.5 C 280.833,415.5 287.167,415.5 293.5,415.5C 290.644,417.006 287.477,417.672 284,417.5C 280.523,417.672 277.356,417.006 274.5,415.5 Z"/></g>
<g><path style="opacity:1" fill="#acb847" d="M 367.5,414.5 C 374.799,415.35 382.132,415.683 389.5,415.5C 386.983,416.973 384.15,417.64 381,417.5C 376.166,417.436 371.666,416.436 367.5,414.5 Z"/></g>
<g><path style="opacity:1" fill="#b7be5f" d="M 254.5,404.5 C 254.5,421.167 254.5,437.833 254.5,454.5C 248.833,454.5 243.167,454.5 237.5,454.5C 237.5,454.167 237.5,453.833 237.5,453.5C 238.167,453.5 238.833,453.5 239.5,453.5C 244.167,453.5 248.833,453.5 253.5,453.5C 253.17,436.991 253.504,420.658 254.5,404.5 Z"/></g>
</svg>
